<svg width="383" height="146" viewBox="0 0 383 146" fill="none" xmlns="http://www.w3.org/2000/svg">
<g clip-path="url(#clip0_228_18)">
<path d="M0 0.578003H383V145.578H0V0.578003ZM4 4.578V141.578H379V4.578H4Z" fill="black"/>
<path d="M38.0601 38.6681V21.1157H35.5729C33.2989 21.1157 29.0352 21.1868 26.0505 22.2527C24.4872 23.3897 21.3604 27.7245 19.5839 30.2828C19.3707 30.6381 19.1575 30.8513 18.8733 30.7802L17.3099 30.2117C17.0256 30.1406 16.9546 29.7853 17.0256 29.5722C17.8073 26.5875 20.1524 17.2073 20.4366 15.7861C20.6498 14.8623 21.0051 14.578 21.5026 14.578C22 14.578 22.2132 14.8623 22.8527 15.6439C23.6344 16.6388 24.9846 17.2784 27.5429 17.4205C31.3092 17.6337 34.2938 17.8469 41.6843 17.8469H45.8059C53.5517 17.8469 56.6073 17.5626 59.592 17.4205C61.1553 17.3494 63.9268 16.4967 64.7795 15.6439C65.4901 14.9333 65.9165 14.578 66.4139 14.578C66.9114 14.578 67.1246 14.8623 67.2667 15.715C67.4799 17.2784 68.8301 26.0901 69.3986 29.8564C69.4696 30.1406 69.3275 30.4249 69.1143 30.496L67.622 31.0645C67.3377 31.1355 67.1956 30.9223 66.9114 30.4249C65.348 27.8667 62.5766 24.1714 60.8 22.4659C59.0235 21.4 52.6989 21.1157 51.0645 21.1157H48.7194V40.6579C48.7194 41.6527 48.7194 61.5502 48.7905 62.6161C48.9326 64.3927 49.5011 65.4586 51.2066 65.4586H54.4044C55.044 65.4586 55.115 65.6718 55.115 66.1692V67.8037C55.115 68.159 55.044 68.3722 54.4044 68.3722C53.6938 68.3722 51.4198 68.159 43.5319 68.159C35.9993 68.159 33.0146 68.3722 32.0198 68.3722C31.4513 68.3722 31.3802 68.0879 31.3802 67.5194V66.1692C31.3802 65.6718 31.4513 65.4586 31.8777 65.4586H35.5018C36.9231 65.4586 37.7758 64.6059 37.9179 63.3267C38.0601 61.8344 38.0601 40.0183 38.0601 38.6681ZM95.9403 48.6879H80.3777C79.8092 50.1802 76.3271 59.9158 76.3271 62.1897C76.3271 63.7531 76.9667 65.4586 79.0986 65.4586H81.5857C82.2964 65.4586 82.3674 65.7429 82.3674 66.0271V67.5905C82.3674 68.159 82.2964 68.3722 81.7279 68.3722C80.804 68.3722 77.8905 68.159 72.0634 68.159C66.8758 68.159 65.3125 68.3722 64.3176 68.3722C63.8912 68.3722 63.8202 67.9458 63.8202 67.4484V66.0982C63.8202 65.6718 63.8912 65.4586 64.3176 65.4586H66.1652C67.8707 65.4586 69.5762 64.4637 70.9975 62.3319C71.9923 60.8396 77.0377 48.4747 79.3828 42.2212C79.9513 40.8 85.7074 25.5216 86.3469 23.6029C86.5601 22.8923 86.9154 21.9685 86.418 21.1868C86.2048 20.9025 85.9205 20.5472 85.9205 20.263C85.9205 20.0498 86.0627 19.7656 86.6312 19.6234C88.9052 19.126 93.5242 17.2784 94.5901 16.0703C94.9455 15.715 95.1586 15.4307 95.5139 15.4307C95.9403 15.4307 96.0824 15.8571 96.2956 16.6388C97.6458 21.1157 103.189 37.0337 104.539 41.5817C106.173 47.1245 110.792 60.3421 111.787 62.2608C112.995 64.6059 114.843 65.4586 115.909 65.4586H118.325C118.751 65.4586 118.822 65.7429 118.822 66.0982V67.4484C118.822 67.8747 118.751 68.3722 118.183 68.3722C116.833 68.3722 115.34 68.159 106.244 68.159C100.346 68.159 97.859 68.3722 96.4378 68.3722C95.7271 68.3722 95.6561 67.9458 95.6561 67.4484V66.0982C95.6561 65.7429 95.7271 65.4586 96.0824 65.4586H98.0722C99.9909 65.4586 100.63 64.748 100.204 62.9004C99.5645 60.3421 96.7931 51.2462 95.9403 48.6879ZM81.3015 45.8454H95.3008C94.6612 43.7135 90.4685 28.7905 89.9711 27.0139C89.6868 25.948 89.5447 25.4505 89.1894 25.4505C88.763 25.4505 88.5498 25.7348 88.3367 26.3743C87.9813 27.2982 81.87 44.0689 81.3015 45.8454ZM123.974 43.3582V38.3839C123.974 36.6784 123.761 23.8872 123.69 22.9634C123.548 21.2579 122.837 20.5472 121.345 20.5472H117.934C117.579 20.5472 117.366 20.4051 117.366 20.1209V18.0601C117.366 17.7758 117.579 17.6337 117.863 17.6337C118.716 17.6337 122.34 17.8469 129.304 17.8469C136.552 17.8469 138.826 17.6337 139.821 17.6337C140.177 17.6337 140.319 17.8469 140.319 18.2732V20.0498C140.319 20.4051 140.106 20.5472 139.75 20.5472H137.689C135.913 20.5472 134.847 21.1157 134.847 22.3949C134.847 23.1055 134.634 38.8102 134.634 39.663V45.1348C134.634 45.8454 134.847 62.2608 134.847 62.9004C134.847 65.1033 135.913 65.4586 137.263 65.4586H140.177C140.532 65.4586 140.745 65.6007 140.745 65.956V67.9458C140.745 68.23 140.532 68.3722 140.106 68.3722C139.253 68.3722 136.41 68.159 129.659 68.159C122.198 68.159 119.142 68.3722 118.36 68.3722C118.005 68.3722 117.792 68.23 117.792 67.8037V65.885C117.792 65.6007 118.005 65.4586 118.36 65.4586H120.421C121.843 65.4586 123.335 65.2454 123.619 63.5399C123.761 62.474 123.974 47.1245 123.974 43.3582ZM159.754 39.8051V45.9165C159.754 47.1245 159.754 62.474 159.967 65.3165H164.018C167.358 65.3165 170.556 65.3165 174.393 64.9612C178.23 64.6059 183.063 56.0784 184.129 53.4491C184.342 53.0227 184.555 52.8095 184.981 53.0227L186.403 53.5912C186.616 53.7333 186.616 53.8044 186.545 54.2308C186.332 54.7282 183.489 66.4535 183.063 68.3722C181.215 68.23 160.749 68.159 154.211 68.159C147.176 68.159 144.618 68.3722 143.694 68.3722C143.197 68.3722 143.126 68.23 143.126 67.7326V65.956C143.126 65.6007 143.197 65.4586 143.623 65.4586H145.826C148.455 65.4586 148.882 64.4637 148.882 63.6821C148.882 62.3319 149.095 44.6374 149.095 40.3026V36.3231C149.095 31.7751 148.953 24.2425 148.882 23.1055C148.74 21.2579 148.384 20.5472 146.75 20.5472H144.121C143.694 20.5472 143.623 20.1919 143.623 19.8366V18.1311C143.623 17.7758 143.694 17.6337 144.121 17.6337C144.902 17.6337 147.46 17.8469 153.927 17.8469C162.241 17.8469 165.226 17.6337 165.866 17.6337C166.434 17.6337 166.505 17.8469 166.505 18.3443V19.9787C166.505 20.334 166.363 20.5472 165.795 20.5472H162.455C160.252 20.5472 159.967 21.2579 159.967 23.1765C159.967 24.1004 159.754 34.8308 159.754 39.8051ZM214.863 69.2249C209.96 69.2249 203.777 68.0879 198.163 64.6059C193.118 61.5502 187.717 53.8755 187.717 43.5004C187.717 39.1656 188.854 32.4146 194.326 25.8058C200.58 18.2022 208.61 16.7809 215.005 16.7809C220.903 16.7809 226.375 17.7047 232.344 22.3949C237.745 26.6586 242.08 33.8359 242.08 43.6425C242.08 48.83 240.446 54.2308 236.75 59.2051C232.131 64.9612 226.091 69.2249 214.863 69.2249ZM215.432 65.885C228.578 65.885 230.923 50.0381 230.923 44.211C230.923 28.6483 220.69 20.1209 214.721 20.1209C213.3 20.1209 209.747 19.7656 205.412 23.9582C201.219 27.9377 199.087 35.3993 199.087 41.2264C199.087 59.4183 209.533 65.885 215.432 65.885ZM250.998 42.7187V35.8256C250.998 30.567 250.998 26.019 250.927 24.1004C250.856 21.7553 249.932 20.5472 248.937 20.5472H246.095C245.74 20.5472 245.669 20.334 245.669 20.0498V18.1311C245.669 17.7758 245.74 17.6337 246.095 17.6337C246.735 17.6337 248.937 17.8469 256.683 17.8469C260.663 17.8469 266.916 17.6337 269.83 17.6337C275.373 17.6337 279.494 19.6234 282.408 22.3238C284.966 24.6689 286.458 27.4403 286.458 30.0696C286.458 39.0945 279.707 43.145 273.454 43.7135V44.211C275.657 44.9216 276.794 46.2718 278.144 47.9773C279.068 49.1143 282.976 55.4388 283.545 56.2916C283.971 56.9311 287.809 62.3319 289.23 63.9663C290.083 64.8901 292.783 65.4586 294.417 65.4586C294.915 65.4586 294.986 65.7429 294.986 66.0271V67.7326C294.986 68.159 294.915 68.3722 294.417 68.3722C293.849 68.3722 292.001 68.159 286.529 68.159C284.469 68.159 281.839 68.3011 279.779 68.3722C277.647 66.7377 273.241 58.4945 272.033 56.0784C269.617 51.2462 266.703 45.9875 263.292 45.9875H260.876V49.6117C260.876 53.8044 261.089 61.7634 261.231 62.6872C261.373 64.1795 261.942 65.4586 263.008 65.4586H265.921C266.419 65.4586 266.49 65.6718 266.49 66.0271V67.7326C266.49 68.23 266.419 68.3722 265.353 68.3722C265.282 68.3722 263.505 68.159 256.044 68.159C248.511 68.159 246.877 68.3722 246.095 68.3722C245.526 68.3722 245.526 68.159 245.526 67.6615V66.0271C245.526 65.6718 245.526 65.4586 245.882 65.4586H248.014C249.577 65.4586 250.856 64.9612 250.856 63.1846C250.998 56.1495 250.998 49.4696 250.998 42.7187ZM261.302 22.7502L260.947 43.5004C262.297 43.5714 263.15 43.5714 263.789 43.5714C273.17 43.5714 275.373 34.6176 275.373 31.2776C275.373 28.0088 274.236 24.882 272.672 23.3187C270.114 21.0447 266.916 20.1919 264.784 20.1919C263.576 20.1919 262.652 20.334 262.084 20.8315C261.658 21.1157 261.444 21.8974 261.302 22.7502ZM320.71 69.2249C310.62 69.2249 304.224 62.2608 304.224 56.9311C304.224 51.6015 307.28 47.4088 310.193 44.8505C312.538 42.7897 315.452 40.8711 317.442 39.8762C312.609 36.6784 310.406 33.5516 310.335 29.9985C310.406 24.3846 317.228 17.8469 323.908 17.8469C331.867 17.8469 336.273 22.8923 336.131 27.7245C335.989 31.704 331.583 35.6124 327.603 37.1048C333.075 39.4498 337.836 44.7084 341.603 50.3223C344.161 47.2667 345.795 42.9319 345.795 39.9472C345.795 38.8103 345.085 37.7443 343.592 37.7443H342.669C342.242 37.7443 342.171 37.5311 342.171 37.2469V35.5414C342.171 35.3282 342.242 35.1861 342.669 35.1861C343.308 35.1861 347.146 35.3993 350.841 35.3993C353.47 35.3993 357.734 35.1861 358.16 35.1861C358.587 35.1861 358.658 35.3993 358.658 35.7546V37.2469C358.658 37.5311 358.587 37.7443 358.16 37.7443H356.952C354.82 37.7443 353.612 38.0286 352.617 39.5919C352.049 40.5157 348.069 47.5509 343.735 52.9516C344.658 53.6623 347.501 57.3575 349.633 59.4183C350.699 60.4843 353.683 63.5399 357.521 63.5399C362.069 63.5399 364.343 59.6315 364.911 58.8498C365.124 58.5656 365.338 58.4945 365.48 58.6366L366.901 59.6315C367.043 59.7026 367.043 59.9158 366.83 60.2711C365.551 62.6161 360.79 69.2249 351.836 69.2249C343.806 69.2249 340.679 65.0322 336.913 60.7685C333.928 63.611 329.806 69.2249 320.71 69.2249ZM323.411 63.7531C329.664 63.7531 332.791 60.6974 335.278 58.0681C331.867 52.3831 325.258 44.9927 319.858 41.7949C317.513 43.2161 313.959 48.4037 314.102 54.3018C314.244 60.4132 320.071 63.7531 323.411 63.7531ZM323.908 20.8315C320.071 20.8315 318.934 24.5267 318.934 28.222C318.934 31.2776 322.203 34.0491 324.903 35.3282C326.395 34.3333 328.243 32.6278 328.243 27.5113C328.243 24.3846 326.751 20.8315 323.908 20.8315Z" fill="black"/>
<path d="M42.7252 131.509C33.6013 131.509 28.7993 129.039 24.4775 125.197C19.401 120.67 17 112.781 17 106.881C17 99.8152 19.2638 93.4353 24.0659 88.2903C27.9761 84.1056 33.6699 80.8814 42.1764 80.8814C48.4191 80.8814 53.5641 82.4592 55.9651 83.7626C56.9255 84.2428 57.2685 84.1742 57.4057 83.694L57.9545 81.979C58.0917 81.5674 58.2289 81.5674 59.2579 81.5674C60.2869 81.5674 60.4242 81.7046 60.4242 82.665C60.4242 83.9684 61.659 95.6305 62.002 97.6885C62.0706 98.1688 62.002 98.5118 61.659 98.5804L60.1497 98.992C59.8067 99.1292 59.5323 98.8548 59.3265 98.2374C58.5719 95.4933 56.7197 91.9947 53.8385 89.0449C50.8887 86.1637 47.2528 83.8998 42.0392 83.8998C32.0235 83.8998 27.7703 93.0237 27.8389 103.177C27.8389 107.498 29.0737 115.936 33.9443 121.081C38.4034 125.678 42.3136 126.226 44.646 126.226C52.4665 126.226 58.2975 122.659 60.8358 118.886C61.1788 118.337 61.5218 118.063 61.8648 118.337L63.031 119.366C63.2368 119.504 63.3054 119.778 63.031 120.19C59.0521 125.952 52.3979 131.509 42.7252 131.509ZM91.3973 131.509C86.6639 131.509 80.6956 130.411 75.2762 127.05C70.4055 124.1 65.1919 116.691 65.1919 106.675C65.1919 102.491 66.2895 95.9735 71.5717 89.5937C77.6086 82.2534 85.3605 80.8814 91.5345 80.8814C97.2283 80.8814 102.511 81.7732 108.273 86.3009C113.487 90.4169 117.671 97.3455 117.671 106.812C117.671 111.82 116.094 117.034 112.526 121.836C108.067 127.393 102.236 131.509 91.3973 131.509ZM91.9461 128.284C104.637 128.284 106.901 112.986 106.901 107.361C106.901 92.3377 97.0225 84.1056 91.2601 84.1056C89.8881 84.1056 86.4581 83.7626 82.2734 87.8101C78.226 91.6517 76.168 98.8548 76.168 104.48C76.168 122.042 86.2523 128.284 91.9461 128.284ZM128.956 105.303C128.956 106.126 129.025 115.456 129.436 121.493C129.642 124.031 130.74 127.873 133.004 127.873H135.679C136.091 127.873 136.159 128.079 136.159 128.353V130.205C136.159 130.48 136.091 130.685 135.542 130.685C134.787 130.685 132.935 130.48 127.927 130.48C122.096 130.48 119.695 130.685 119.078 130.685C118.529 130.685 118.46 130.617 118.46 130.068V128.284C118.46 128.079 118.529 127.873 118.872 127.873H121.684C123.88 127.873 124.703 124.717 124.977 122.522C125.595 117.651 126.212 101.462 126.212 100.227L126.143 89.7309C126.143 86.5753 125.457 84.5172 122.37 84.5172H120.107C119.695 84.5172 119.626 84.3114 119.626 84.037V82.1162C119.626 81.9104 119.695 81.7046 120.107 81.7046C120.793 81.7046 122.645 81.9104 130.74 81.9104C133.964 81.9104 136.091 81.7046 136.914 81.7046C137.6 81.7046 138.149 81.7732 138.56 82.8708C142.951 94.5329 147.89 105.921 151.731 116.211C152.486 114.907 157.7 102.148 158.111 101.187C158.386 100.501 165.246 84.1056 165.589 82.7336C165.795 81.979 166.686 81.9104 168.744 81.9104C179.446 81.9104 181.779 81.7046 182.533 81.7046C182.876 81.7046 182.945 81.9104 182.945 82.322V83.8998C182.945 84.3114 182.876 84.5172 182.396 84.5172H179.378C177.8 84.5172 177.594 85.7521 177.594 87.1927C177.594 88.2217 177.663 105.097 177.731 106.538C177.731 107.91 177.937 122.934 177.937 124.168C177.937 126.775 178.554 127.873 179.515 127.873H182.808C183.219 127.873 183.288 128.079 183.288 128.353V130.068C183.288 130.48 183.219 130.685 182.67 130.685C181.847 130.685 180.612 130.48 172.517 130.48C165.52 130.48 162.845 130.685 161.953 130.685C161.473 130.685 161.404 130.48 161.404 130.068V128.353C161.404 128.01 161.473 127.873 161.953 127.873H165.795C166.961 127.873 167.578 127.461 167.715 125.54C167.784 124.717 167.99 112.232 167.99 107.43V86.5067H167.578C166.892 87.6729 159.209 106.332 157.974 109.145C156.534 112.3 150.428 127.53 150.085 128.147C149.742 128.696 149.262 129.725 148.439 129.725C147.958 129.725 147.547 129.245 147.204 128.49C146.998 128.01 137.943 106.744 137.463 105.509C136.228 102.353 129.917 86.9869 129.368 86.1637C129.093 87.1241 128.956 104.48 128.956 105.303ZM200.678 109.762V112.3C200.678 115.525 200.747 124.854 200.815 125.678C200.952 127.187 201.638 127.873 202.736 127.873H206.235C206.715 127.873 206.783 128.079 206.783 128.353V130.137C206.783 130.48 206.715 130.685 206.166 130.685C205.206 130.685 203.079 130.48 195.053 130.48C189.016 130.48 186.34 130.685 185.586 130.685C185.106 130.685 185.037 130.48 185.037 130.205V128.353C185.037 128.01 185.106 127.873 185.449 127.873H187.232C189.565 127.873 190.045 127.53 190.251 125.815C190.319 125.129 190.525 114.427 190.525 106.469V98.5804C190.525 94.0527 190.456 86.8497 190.388 86.0265C190.251 84.6544 189.565 84.5172 188.193 84.5172H184.968C184.625 84.5172 184.557 84.38 184.557 83.9684V82.1848C184.557 81.8418 184.625 81.7046 184.968 81.7046C185.723 81.7046 188.193 81.9104 195.396 81.9104C196.631 81.9104 200.678 81.7046 202.942 81.7046C211.38 81.7046 215.427 82.3906 219.406 85.4777C222.287 87.6729 224.345 91.5831 224.345 96.1107C224.345 104.343 217.76 109.968 206.235 109.968C204.108 109.968 202.53 109.899 200.678 109.762ZM200.678 84.5172V107.087C202.187 107.43 203.765 107.498 204.863 107.498C206.989 107.498 210.419 105.303 211.928 102.902C213.3 100.776 213.575 98.1688 213.575 95.6305C213.575 86.1637 206.715 84.1742 203.902 84.1742C202.736 84.1742 201.913 84.2428 200.678 84.5172ZM251.202 111.683H236.179C235.63 113.124 232.269 122.522 232.269 124.717C232.269 126.226 232.886 127.873 234.944 127.873H237.345C238.031 127.873 238.1 128.147 238.1 128.422V129.931C238.1 130.48 238.031 130.685 237.482 130.685C236.59 130.685 233.778 130.48 228.153 130.48C223.145 130.48 221.635 130.685 220.675 130.685C220.263 130.685 220.195 130.274 220.195 129.794V128.49C220.195 128.079 220.263 127.873 220.675 127.873H222.459C224.105 127.873 225.751 126.912 227.123 124.854C228.084 123.414 232.955 111.477 235.218 105.44C235.767 104.068 241.324 89.3193 241.941 87.4671C242.147 86.7811 242.49 85.8893 242.01 85.1346C241.804 84.8602 241.53 84.5172 241.53 84.2428C241.53 84.037 241.667 83.7626 242.216 83.6254C244.411 83.1452 248.87 81.3616 249.899 80.1954C250.242 79.8524 250.448 79.578 250.791 79.578C251.202 79.578 251.34 79.9896 251.545 80.7442C252.849 85.066 258.2 100.433 259.503 104.823C261.081 110.174 265.54 122.934 266.5 124.786C267.666 127.05 269.45 127.873 270.479 127.873H272.811C273.223 127.873 273.292 128.147 273.292 128.49V129.794C273.292 130.205 273.223 130.685 272.674 130.685C271.371 130.685 269.93 130.48 261.149 130.48C255.456 130.48 253.055 130.685 251.683 130.685C250.997 130.685 250.928 130.274 250.928 129.794V128.49C250.928 128.147 250.996 127.873 251.339 127.873H253.26C255.113 127.873 255.73 127.187 255.318 125.403C254.701 122.934 252.026 114.153 251.202 111.683ZM237.071 108.939H250.585C249.968 106.881 245.92 92.4749 245.44 90.7599C245.165 89.7309 245.028 89.2507 244.685 89.2507C244.274 89.2507 244.068 89.5251 243.862 90.1425C243.519 91.0343 237.619 107.224 237.071 108.939ZM314.281 116.76V110.517C314.281 104.411 314.212 101.05 314.075 97.6199C314.006 94.9445 313.663 88.2217 313.457 87.1927C313.046 85.4777 311.399 84.5172 309.821 84.5172H307.626C307.283 84.5172 307.215 84.3114 307.215 83.8998V82.1848C307.215 81.8418 307.283 81.7046 307.832 81.7046C308.587 81.7046 310.782 81.9104 315.858 81.9104C319.974 81.9104 321.621 81.7046 322.375 81.7046C322.993 81.7046 323.061 81.8418 323.061 82.2534V83.8998C323.061 84.2428 322.993 84.5172 322.718 84.5172H320.798C319.631 84.5172 318.945 85.6835 318.74 88.1531C318.259 92.7493 317.162 108.253 317.162 117.308V129.039C317.162 130.068 317.093 131.303 316.133 131.303C315.104 131.303 314.212 130.96 313.457 130.205C312.291 129.108 308.93 125.472 304.814 120.601C299.874 114.77 294.386 108.184 293.083 106.675C291.917 105.303 282.45 93.5039 280.872 91.2401H280.323V105.097C280.323 110.791 280.941 119.229 281.009 121.836C281.146 125.815 282.381 127.873 285.262 127.873H286.978C287.458 127.873 287.526 128.079 287.526 128.49V130.137C287.526 130.548 287.458 130.685 286.978 130.685C286.291 130.685 282.175 130.48 278.951 130.48C276.825 130.48 272.091 130.685 271.405 130.685C271.131 130.685 271.062 130.548 271.062 130.068V128.284C271.062 128.079 271.131 127.873 271.474 127.873H273.875C275.384 127.873 276.482 125.678 276.825 121.081C276.893 119.778 277.442 108.802 277.442 98.649V92.4749C277.442 88.4275 274.972 84.5858 271.542 84.5172L269.827 84.4486C269.484 84.4486 269.416 84.1742 269.416 83.9684V82.1162C269.416 81.8418 269.484 81.7046 269.827 81.7046C270.17 81.7046 270.719 81.7732 272.023 81.7732C273.395 81.8418 275.59 81.9104 279.157 81.9104C281.489 81.9104 283.547 81.7732 284.371 81.7732C285.262 81.7732 285.811 82.0476 286.36 82.665C286.703 83.0766 300.217 99.6094 302.275 102.148C303.236 103.314 313.252 115.868 314.006 116.76H314.281ZM346.9 110.105V117.72C346.9 120.395 347.106 124.854 347.174 125.472C347.38 127.667 348.409 127.873 349.507 127.873H351.496C351.977 127.873 351.977 128.079 351.977 128.353V130.068C351.977 130.48 351.977 130.685 351.496 130.685C350.673 130.685 347.998 130.48 341.549 130.48C334.415 130.48 332.288 130.685 331.534 130.685C331.259 130.685 331.122 130.48 331.122 129.999V128.353C331.122 128.079 331.191 127.873 331.602 127.873H334.003C335.787 127.873 336.336 127.187 336.404 126.295C336.473 125.335 336.61 119.915 336.61 113.535V110.585C335.512 108.459 324.536 88.4275 322.821 86.0951C321.998 85.066 320.352 84.5172 319.254 84.5172H318.225C317.813 84.5172 317.745 84.3114 317.745 84.037V82.1162C317.745 81.8418 317.813 81.7046 318.225 81.7046C318.842 81.7046 322.067 81.9104 328.172 81.9104C335.238 81.9104 337.708 81.7046 338.394 81.7046C338.805 81.7046 338.874 81.8418 338.874 82.1848V83.8998C338.874 84.2428 338.805 84.5172 338.394 84.5172H336.816C335.855 84.5172 335.169 85.2032 335.169 86.3009C335.169 87.5357 343.333 103.245 345.185 107.224C347.243 103.451 355.475 88.9763 355.475 86.8497C355.475 85.6835 354.309 84.5172 352.868 84.5172H351.016C350.605 84.5172 350.536 84.3114 350.536 83.8998V82.1162C350.536 81.8418 350.605 81.7046 351.016 81.7046C351.702 81.7046 354.515 81.9104 359.591 81.9104C364.325 81.9104 365.834 81.7046 366.451 81.7046C366.931 81.7046 367 81.8418 367 82.2534V83.8998C367 84.3114 366.931 84.5172 366.451 84.5172H365.216C364.393 84.5172 362.335 84.9288 361.306 86.1637C360.414 87.2613 349.713 104.823 346.9 110.105Z" fill="black"/>
</g>
<defs>
<clipPath id="clip0_228_18">
<rect width="383" height="145" fill="white" transform="translate(0 0.578003)"/>
</clipPath>
</defs>
</svg>
