<svg width="383" height="145" viewBox="0 0 383 145" fill="none" xmlns="http://www.w3.org/2000/svg">
<g clip-path="url(#clip0_207_10)">
<path d="M0 0H383V145H0V0ZM4 4V141H379V4H4Z" fill="#431407"/>
<path d="M38.0601 38.0901V20.5377H35.5729C33.2989 20.5377 29.0352 20.6088 26.0505 21.6747C24.4872 22.8117 21.3604 27.1465 19.5839 29.7048C19.3707 30.0601 19.1575 30.2733 18.8733 30.2022L17.3099 29.6337C17.0256 29.5626 16.9546 29.2073 17.0256 28.9941C17.8073 26.0095 20.1524 16.6293 20.4366 15.2081C20.6498 14.2842 21.0051 14 21.5026 14C22 14 22.2132 14.2842 22.8527 15.0659C23.6344 16.0608 24.9846 16.7004 27.5429 16.8425C31.3092 17.0557 34.2938 17.2689 41.6843 17.2689H45.8059C53.5517 17.2689 56.6073 16.9846 59.592 16.8425C61.1553 16.7714 63.9268 15.9187 64.7795 15.0659C65.4901 14.3553 65.9165 14 66.4139 14C66.9114 14 67.1246 14.2842 67.2667 15.137C67.4799 16.7004 68.8301 25.5121 69.3986 29.2784C69.4696 29.5626 69.3275 29.8469 69.1143 29.918L67.622 30.4865C67.3377 30.5575 67.1956 30.3443 66.9114 29.8469C65.348 27.2887 62.5766 23.5934 60.8 21.8879C59.0235 20.822 52.6989 20.5377 51.0645 20.5377H48.7194V40.0799C48.7194 41.0747 48.7194 60.9722 48.7905 62.0381C48.9326 63.8147 49.5011 64.8806 51.2066 64.8806H54.4044C55.044 64.8806 55.115 65.0938 55.115 65.5912V67.2257C55.115 67.581 55.044 67.7942 54.4044 67.7942C53.6938 67.7942 51.4198 67.581 43.5319 67.581C35.9993 67.581 33.0146 67.7942 32.0198 67.7942C31.4513 67.7942 31.3802 67.5099 31.3802 66.9414V65.5912C31.3802 65.0938 31.4513 64.8806 31.8777 64.8806H35.5018C36.9231 64.8806 37.7758 64.0279 37.9179 62.7487C38.0601 61.2564 38.0601 39.4403 38.0601 38.0901ZM95.9403 48.1099H80.3777C79.8092 49.6022 76.3271 59.3378 76.3271 61.6117C76.3271 63.1751 76.9667 64.8806 79.0986 64.8806H81.5857C82.2964 64.8806 82.3674 65.1649 82.3674 65.4491V67.0125C82.3674 67.581 82.2964 67.7942 81.7279 67.7942C80.804 67.7942 77.8905 67.581 72.0634 67.581C66.8758 67.581 65.3125 67.7942 64.3176 67.7942C63.8912 67.7942 63.8202 67.3678 63.8202 66.8704V65.5202C63.8202 65.0938 63.8912 64.8806 64.3176 64.8806H66.1652C67.8707 64.8806 69.5762 63.8857 70.9975 61.7539C71.9923 60.2616 77.0377 47.8967 79.3828 41.6432C79.9513 40.222 85.7074 24.9436 86.3469 23.0249C86.5601 22.3143 86.9154 21.3905 86.418 20.6088C86.2048 20.3245 85.9205 19.9692 85.9205 19.685C85.9205 19.4718 86.0627 19.1875 86.6312 19.0454C88.9052 18.548 93.5242 16.7004 94.5901 15.4923C94.9455 15.137 95.1586 14.8527 95.5139 14.8527C95.9403 14.8527 96.0824 15.2791 96.2956 16.0608C97.6458 20.5377 103.189 36.4557 104.539 41.0037C106.173 46.5465 110.792 59.7641 111.787 61.6828C112.995 64.0279 114.843 64.8806 115.909 64.8806H118.325C118.751 64.8806 118.822 65.1649 118.822 65.5202V66.8704C118.822 67.2967 118.751 67.7942 118.183 67.7942C116.833 67.7942 115.34 67.581 106.244 67.581C100.346 67.581 97.859 67.7942 96.4378 67.7942C95.7271 67.7942 95.6561 67.3678 95.6561 66.8704V65.5202C95.6561 65.1649 95.7271 64.8806 96.0824 64.8806H98.0722C99.9909 64.8806 100.63 64.17 100.204 62.3224C99.5645 59.7641 96.7931 50.6682 95.9403 48.1099ZM81.3015 45.2674H95.3008C94.6612 43.1355 90.4685 28.2125 89.9711 26.4359C89.6868 25.37 89.5447 24.8725 89.1894 24.8725C88.763 24.8725 88.5498 25.1568 88.3367 25.7963C87.9813 26.7202 81.87 43.4909 81.3015 45.2674ZM123.974 42.7802V37.8059C123.974 36.1004 123.761 23.3092 123.69 22.3854C123.548 20.6799 122.837 19.9692 121.345 19.9692H117.934C117.579 19.9692 117.366 19.8271 117.366 19.5429V17.4821C117.366 17.1978 117.579 17.0557 117.863 17.0557C118.716 17.0557 122.34 17.2689 129.304 17.2689C136.552 17.2689 138.826 17.0557 139.821 17.0557C140.177 17.0557 140.319 17.2689 140.319 17.6952V19.4718C140.319 19.8271 140.106 19.9692 139.75 19.9692H137.689C135.913 19.9692 134.847 20.5377 134.847 21.8169C134.847 22.5275 134.634 38.2322 134.634 39.085V44.5568C134.634 45.2674 134.847 61.6828 134.847 62.3224C134.847 64.5253 135.913 64.8806 137.263 64.8806H140.177C140.532 64.8806 140.745 65.0227 140.745 65.378V67.3678C140.745 67.652 140.532 67.7942 140.106 67.7942C139.253 67.7942 136.41 67.581 129.659 67.581C122.198 67.581 119.142 67.7942 118.36 67.7942C118.005 67.7942 117.792 67.652 117.792 67.2257V65.307C117.792 65.0227 118.005 64.8806 118.36 64.8806H120.421C121.843 64.8806 123.335 64.6674 123.619 62.9619C123.761 61.896 123.974 46.5465 123.974 42.7802ZM159.754 39.2271V45.3385C159.754 46.5465 159.754 61.896 159.967 64.7385H164.018C167.358 64.7385 170.556 64.7385 174.393 64.3832C178.23 64.0279 183.063 55.5004 184.129 52.8711C184.342 52.4447 184.555 52.2315 184.981 52.4447L186.403 53.0132C186.616 53.1553 186.616 53.2264 186.545 53.6528C186.332 54.1502 183.489 65.8755 183.063 67.7942C181.215 67.652 160.749 67.581 154.211 67.581C147.176 67.581 144.618 67.7942 143.694 67.7942C143.197 67.7942 143.126 67.652 143.126 67.1546V65.378C143.126 65.0227 143.197 64.8806 143.623 64.8806H145.826C148.455 64.8806 148.882 63.8857 148.882 63.1041C148.882 61.7539 149.095 44.0594 149.095 39.7246V35.7451C149.095 31.1971 148.953 23.6645 148.882 22.5275C148.74 20.6799 148.384 19.9692 146.75 19.9692H144.121C143.694 19.9692 143.623 19.6139 143.623 19.2586V17.5531C143.623 17.1978 143.694 17.0557 144.121 17.0557C144.902 17.0557 147.46 17.2689 153.927 17.2689C162.241 17.2689 165.226 17.0557 165.866 17.0557C166.434 17.0557 166.505 17.2689 166.505 17.7663V19.4007C166.505 19.756 166.363 19.9692 165.795 19.9692H162.455C160.252 19.9692 159.967 20.6799 159.967 22.5985C159.967 23.5223 159.754 34.2528 159.754 39.2271ZM214.863 68.6469C209.96 68.6469 203.777 67.5099 198.163 64.0279C193.118 60.9722 187.717 53.2975 187.717 42.9224C187.717 38.5876 188.854 31.8366 194.326 25.2278C200.58 17.6242 208.61 16.2029 215.005 16.2029C220.903 16.2029 226.375 17.1267 232.344 21.8169C237.745 26.0806 242.08 33.2579 242.08 43.0645C242.08 48.252 240.446 53.6528 236.75 58.6271C232.131 64.3832 226.091 68.6469 214.863 68.6469ZM215.432 65.307C228.578 65.307 230.923 49.4601 230.923 43.633C230.923 28.0703 220.69 19.5429 214.721 19.5429C213.3 19.5429 209.747 19.1875 205.412 23.3802C201.219 27.3597 199.087 34.8213 199.087 40.6484C199.087 58.8403 209.533 65.307 215.432 65.307ZM250.998 42.1407V35.2476C250.998 29.989 250.998 25.441 250.927 23.5223C250.856 21.1773 249.932 19.9692 248.937 19.9692H246.095C245.74 19.9692 245.669 19.756 245.669 19.4718V17.5531C245.669 17.1978 245.74 17.0557 246.095 17.0557C246.735 17.0557 248.937 17.2689 256.683 17.2689C260.663 17.2689 266.916 17.0557 269.83 17.0557C275.373 17.0557 279.494 19.0454 282.408 21.7458C284.966 24.0908 286.458 26.8623 286.458 29.4916C286.458 38.5165 279.707 42.567 273.454 43.1355V43.633C275.657 44.3436 276.794 45.6938 278.144 47.3993C279.068 48.5363 282.976 54.8608 283.545 55.7136C283.971 56.3531 287.809 61.7539 289.23 63.3883C290.083 64.3121 292.783 64.8806 294.417 64.8806C294.915 64.8806 294.986 65.1649 294.986 65.4491V67.1546C294.986 67.581 294.915 67.7942 294.417 67.7942C293.849 67.7942 292.001 67.581 286.529 67.581C284.469 67.581 281.839 67.7231 279.779 67.7942C277.647 66.1597 273.241 57.9165 272.033 55.5004C269.617 50.6682 266.703 45.4095 263.292 45.4095H260.876V49.0337C260.876 53.2264 261.089 61.1854 261.231 62.1092C261.373 63.6015 261.942 64.8806 263.008 64.8806H265.921C266.419 64.8806 266.49 65.0938 266.49 65.4491V67.1546C266.49 67.652 266.419 67.7942 265.353 67.7942C265.282 67.7942 263.505 67.581 256.044 67.581C248.511 67.581 246.877 67.7942 246.095 67.7942C245.526 67.7942 245.526 67.581 245.526 67.0835V65.4491C245.526 65.0938 245.526 64.8806 245.882 64.8806H248.014C249.577 64.8806 250.856 64.3832 250.856 62.6066C250.998 55.5715 250.998 48.8916 250.998 42.1407ZM261.302 22.1722L260.947 42.9224C262.297 42.9934 263.15 42.9934 263.789 42.9934C273.17 42.9934 275.373 34.0396 275.373 30.6996C275.373 27.4308 274.236 24.304 272.672 22.7407C270.114 20.4667 266.916 19.6139 264.784 19.6139C263.576 19.6139 262.652 19.756 262.084 20.2535C261.658 20.5377 261.444 21.3194 261.302 22.1722ZM320.71 68.6469C310.62 68.6469 304.224 61.6828 304.224 56.3531C304.224 51.0235 307.28 46.8308 310.193 44.2725C312.538 42.2117 315.452 40.2931 317.442 39.2982C312.609 36.1004 310.406 32.9736 310.335 29.4205C310.406 23.8066 317.228 17.2689 323.908 17.2689C331.867 17.2689 336.273 22.3143 336.131 27.1465C335.989 31.126 331.583 35.0344 327.603 36.5268C333.075 38.8718 337.836 44.1304 341.603 49.7443C344.161 46.6887 345.795 42.3539 345.795 39.3692C345.795 38.2322 345.085 37.1663 343.592 37.1663H342.669C342.242 37.1663 342.171 36.9531 342.171 36.6689V34.9634C342.171 34.7502 342.242 34.6081 342.669 34.6081C343.308 34.6081 347.146 34.8213 350.841 34.8213C353.47 34.8213 357.734 34.6081 358.16 34.6081C358.587 34.6081 358.658 34.8213 358.658 35.1766V36.6689C358.658 36.9531 358.587 37.1663 358.16 37.1663H356.952C354.82 37.1663 353.612 37.4506 352.617 39.0139C352.049 39.9377 348.069 46.9729 343.735 52.3736C344.658 53.0843 347.501 56.7795 349.633 58.8403C350.699 59.9063 353.683 62.9619 357.521 62.9619C362.069 62.9619 364.343 59.0535 364.911 58.2718C365.124 57.9876 365.338 57.9165 365.48 58.0586L366.901 59.0535C367.043 59.1246 367.043 59.3378 366.83 59.6931C365.551 62.0381 360.79 68.6469 351.836 68.6469C343.806 68.6469 340.679 64.4542 336.913 60.1905C333.928 63.033 329.806 68.6469 320.71 68.6469ZM323.411 63.1751C329.664 63.1751 332.791 60.1194 335.278 57.4901C331.867 51.8051 325.258 44.4147 319.858 41.2169C317.513 42.6381 313.959 47.8257 314.102 53.7238C314.244 59.8352 320.071 63.1751 323.411 63.1751ZM323.908 20.2535C320.071 20.2535 318.934 23.9487 318.934 27.644C318.934 30.6996 322.203 33.4711 324.903 34.7502C326.395 33.7553 328.243 32.0498 328.243 26.9333C328.243 23.8066 326.751 20.2535 323.908 20.2535Z" fill="#431407"/>
<path d="M42.7252 130.931C33.6013 130.931 28.7993 128.461 24.4775 124.619C19.401 120.092 17 112.203 17 106.303C17 99.2372 19.2638 92.8573 24.0659 87.7123C27.9761 83.5276 33.6699 80.3034 42.1764 80.3034C48.4191 80.3034 53.5641 81.8812 55.9651 83.1846C56.9255 83.6648 57.2685 83.5962 57.4057 83.116L57.9545 81.401C58.0917 80.9894 58.2289 80.9894 59.2579 80.9894C60.2869 80.9894 60.4242 81.1266 60.4242 82.087C60.4242 83.3904 61.659 95.0525 62.002 97.1105C62.0706 97.5907 62.002 97.9338 61.659 98.0024L60.1497 98.414C59.8067 98.5512 59.5323 98.2768 59.3265 97.6594C58.5719 94.9153 56.7197 91.4167 53.8385 88.4669C50.8887 85.5857 47.2528 83.3218 42.0392 83.3218C32.0235 83.3218 27.7703 92.4457 27.8389 102.599C27.8389 106.92 29.0737 115.358 33.9443 120.503C38.4034 125.1 42.3136 125.648 44.646 125.648C52.4665 125.648 58.2975 122.081 60.8358 118.308C61.1788 117.759 61.5218 117.485 61.8648 117.759L63.031 118.788C63.2368 118.926 63.3054 119.2 63.031 119.612C59.0521 125.374 52.3979 130.931 42.7252 130.931ZM91.3973 130.931C86.6639 130.931 80.6956 129.833 75.2762 126.472C70.4055 123.522 65.1919 116.113 65.1919 106.097C65.1919 101.913 66.2895 95.3955 71.5717 89.0157C77.6086 81.6754 85.3605 80.3034 91.5345 80.3034C97.2283 80.3034 102.511 81.1952 108.273 85.7229C113.487 89.8389 117.671 96.7675 117.671 106.234C117.671 111.242 116.094 116.456 112.526 121.258C108.067 126.815 102.236 130.931 91.3973 130.931ZM91.9461 127.706C104.637 127.706 106.901 112.408 106.901 106.783C106.901 91.7597 97.0225 83.5276 91.2601 83.5276C89.8881 83.5276 86.4581 83.1846 82.2734 87.2321C78.226 91.0737 76.168 98.2768 76.168 103.902C76.168 121.464 86.2523 127.706 91.9461 127.706ZM128.956 104.725C128.956 105.548 129.025 114.878 129.436 120.915C129.642 123.453 130.74 127.295 133.004 127.295H135.679C136.091 127.295 136.159 127.501 136.159 127.775V129.627C136.159 129.902 136.091 130.107 135.542 130.107C134.787 130.107 132.935 129.902 127.927 129.902C122.096 129.902 119.695 130.107 119.078 130.107C118.529 130.107 118.46 130.039 118.46 129.49V127.706C118.46 127.501 118.529 127.295 118.872 127.295H121.684C123.88 127.295 124.703 124.139 124.977 121.944C125.595 117.073 126.212 100.884 126.212 99.6488L126.143 89.1529C126.143 85.9973 125.457 83.9392 122.37 83.9392H120.107C119.695 83.9392 119.626 83.7334 119.626 83.459V81.5382C119.626 81.3324 119.695 81.1266 120.107 81.1266C120.793 81.1266 122.645 81.3324 130.74 81.3324C133.964 81.3324 136.091 81.1266 136.914 81.1266C137.6 81.1266 138.149 81.1952 138.56 82.2928C142.951 93.9549 147.89 105.343 151.731 115.633C152.486 114.329 157.7 101.57 158.111 100.609C158.386 99.9232 165.246 83.5276 165.589 82.1556C165.795 81.401 166.686 81.3324 168.744 81.3324C179.446 81.3324 181.779 81.1266 182.533 81.1266C182.876 81.1266 182.945 81.3324 182.945 81.744V83.3218C182.945 83.7334 182.876 83.9392 182.396 83.9392H179.378C177.8 83.9392 177.594 85.1741 177.594 86.6147C177.594 87.6437 177.663 104.519 177.731 105.96C177.731 107.332 177.937 122.356 177.937 123.59C177.937 126.197 178.554 127.295 179.515 127.295H182.808C183.219 127.295 183.288 127.501 183.288 127.775V129.49C183.288 129.902 183.219 130.107 182.67 130.107C181.847 130.107 180.612 129.902 172.517 129.902C165.52 129.902 162.845 130.107 161.953 130.107C161.473 130.107 161.404 129.902 161.404 129.49V127.775C161.404 127.432 161.473 127.295 161.953 127.295H165.795C166.961 127.295 167.578 126.883 167.715 124.962C167.784 124.139 167.99 111.654 167.99 106.852V85.9287H167.578C166.892 87.0949 159.209 105.754 157.974 108.567C156.534 111.722 150.428 126.952 150.085 127.569C149.742 128.118 149.262 129.147 148.439 129.147C147.958 129.147 147.547 128.667 147.204 127.912C146.998 127.432 137.943 106.166 137.463 104.931C136.228 101.775 129.917 86.4089 129.368 85.5857C129.093 86.5461 128.956 103.902 128.956 104.725ZM200.678 109.184V111.722C200.678 114.947 200.747 124.276 200.815 125.1C200.952 126.609 201.638 127.295 202.736 127.295H206.235C206.715 127.295 206.783 127.501 206.783 127.775V129.559C206.783 129.902 206.715 130.107 206.166 130.107C205.206 130.107 203.079 129.902 195.053 129.902C189.016 129.902 186.34 130.107 185.586 130.107C185.106 130.107 185.037 129.902 185.037 129.627V127.775C185.037 127.432 185.106 127.295 185.449 127.295H187.232C189.565 127.295 190.045 126.952 190.251 125.237C190.319 124.551 190.525 113.849 190.525 105.891V98.0024C190.525 93.4747 190.456 86.2717 190.388 85.4485C190.251 84.0764 189.565 83.9392 188.193 83.9392H184.968C184.625 83.9392 184.557 83.802 184.557 83.3904V81.6068C184.557 81.2638 184.625 81.1266 184.968 81.1266C185.723 81.1266 188.193 81.3324 195.396 81.3324C196.631 81.3324 200.678 81.1266 202.942 81.1266C211.38 81.1266 215.427 81.8126 219.406 84.8996C222.287 87.0949 224.345 91.0051 224.345 95.5327C224.345 103.765 217.76 109.39 206.235 109.39C204.108 109.39 202.53 109.321 200.678 109.184ZM200.678 83.9392V106.509C202.187 106.852 203.765 106.92 204.863 106.92C206.989 106.92 210.419 104.725 211.928 102.324C213.3 100.198 213.575 97.5908 213.575 95.0525C213.575 85.5857 206.715 83.5962 203.902 83.5962C202.736 83.5962 201.913 83.6648 200.678 83.9392ZM251.202 111.105H236.179C235.63 112.546 232.269 121.944 232.269 124.139C232.269 125.648 232.886 127.295 234.944 127.295H237.345C238.031 127.295 238.1 127.569 238.1 127.844V129.353C238.1 129.902 238.031 130.107 237.482 130.107C236.59 130.107 233.778 129.902 228.153 129.902C223.145 129.902 221.635 130.107 220.675 130.107C220.263 130.107 220.195 129.696 220.195 129.216V127.912C220.195 127.501 220.263 127.295 220.675 127.295H222.459C224.105 127.295 225.751 126.334 227.123 124.276C228.084 122.836 232.955 110.899 235.218 104.862C235.767 103.49 241.324 88.7413 241.941 86.8891C242.147 86.2031 242.49 85.3113 242.01 84.5566C241.804 84.2822 241.53 83.9392 241.53 83.6648C241.53 83.459 241.667 83.1846 242.216 83.0474C244.411 82.5672 248.87 80.7836 249.899 79.6174C250.242 79.2744 250.448 79 250.791 79C251.202 79 251.34 79.4116 251.545 80.1662C252.849 84.488 258.2 99.8546 259.503 104.245C261.081 109.596 265.54 122.356 266.5 124.208C267.666 126.472 269.45 127.295 270.479 127.295H272.811C273.223 127.295 273.292 127.569 273.292 127.912V129.216C273.292 129.627 273.223 130.107 272.674 130.107C271.371 130.107 269.93 129.902 261.149 129.902C255.456 129.902 253.055 130.107 251.683 130.107C250.997 130.107 250.928 129.696 250.928 129.216V127.912C250.928 127.569 250.996 127.295 251.339 127.295H253.26C255.113 127.295 255.73 126.609 255.318 124.825C254.701 122.356 252.026 113.575 251.202 111.105ZM237.071 108.361H250.585C249.968 106.303 245.92 91.8969 245.44 90.1819C245.165 89.1529 245.028 88.6727 244.685 88.6727C244.274 88.6727 244.068 88.9471 243.862 89.5645C243.519 90.4563 237.619 106.646 237.071 108.361ZM314.281 116.182V109.939C314.281 103.833 314.212 100.472 314.075 97.0419C314.006 94.3665 313.663 87.6437 313.457 86.6147C313.046 84.8996 311.399 83.9392 309.821 83.9392H307.626C307.283 83.9392 307.215 83.7334 307.215 83.3218V81.6068C307.215 81.2638 307.283 81.1266 307.832 81.1266C308.587 81.1266 310.782 81.3324 315.858 81.3324C319.974 81.3324 321.621 81.1266 322.375 81.1266C322.993 81.1266 323.061 81.2638 323.061 81.6754V83.3218C323.061 83.6648 322.993 83.9392 322.718 83.9392H320.798C319.631 83.9392 318.945 85.1054 318.74 87.5751C318.259 92.1713 317.162 107.675 317.162 116.73V128.461C317.162 129.49 317.093 130.725 316.133 130.725C315.104 130.725 314.212 130.382 313.457 129.627C312.291 128.53 308.93 124.894 304.814 120.023C299.874 114.192 294.386 107.606 293.083 106.097C291.917 104.725 282.45 92.9259 280.872 90.6621H280.323V104.519C280.323 110.213 280.941 118.651 281.009 121.258C281.146 125.237 282.381 127.295 285.262 127.295H286.978C287.458 127.295 287.526 127.501 287.526 127.912V129.559C287.526 129.97 287.458 130.107 286.978 130.107C286.291 130.107 282.175 129.902 278.951 129.902C276.825 129.902 272.091 130.107 271.405 130.107C271.131 130.107 271.062 129.97 271.062 129.49V127.706C271.062 127.501 271.131 127.295 271.474 127.295H273.875C275.384 127.295 276.482 125.1 276.825 120.503C276.893 119.2 277.442 108.224 277.442 98.071V91.8969C277.442 87.8495 274.972 84.0078 271.542 83.9392L269.827 83.8706C269.484 83.8706 269.416 83.5962 269.416 83.3904V81.5382C269.416 81.2638 269.484 81.1266 269.827 81.1266C270.17 81.1266 270.719 81.1952 272.023 81.1952C273.395 81.2638 275.59 81.3324 279.157 81.3324C281.489 81.3324 283.547 81.1952 284.371 81.1952C285.262 81.1952 285.811 81.4696 286.36 82.087C286.703 82.4986 300.217 99.0314 302.275 101.57C303.236 102.736 313.252 115.29 314.006 116.182H314.281ZM346.9 109.527V117.142C346.9 119.817 347.106 124.276 347.174 124.894C347.38 127.089 348.409 127.295 349.507 127.295H351.496C351.977 127.295 351.977 127.501 351.977 127.775V129.49C351.977 129.902 351.977 130.107 351.496 130.107C350.673 130.107 347.998 129.902 341.549 129.902C334.415 129.902 332.288 130.107 331.534 130.107C331.259 130.107 331.122 129.902 331.122 129.421V127.775C331.122 127.501 331.191 127.295 331.602 127.295H334.003C335.787 127.295 336.336 126.609 336.404 125.717C336.473 124.757 336.61 119.337 336.61 112.957V110.007C335.512 107.881 324.536 87.8495 322.821 85.5171C321.998 84.488 320.352 83.9392 319.254 83.9392H318.225C317.813 83.9392 317.745 83.7334 317.745 83.459V81.5382C317.745 81.2638 317.813 81.1266 318.225 81.1266C318.842 81.1266 322.067 81.3324 328.172 81.3324C335.238 81.3324 337.708 81.1266 338.394 81.1266C338.805 81.1266 338.874 81.2638 338.874 81.6068V83.3218C338.874 83.6648 338.805 83.9392 338.394 83.9392H336.816C335.855 83.9392 335.169 84.6252 335.169 85.7229C335.169 86.9577 343.333 102.667 345.185 106.646C347.243 102.873 355.475 88.3983 355.475 86.2717C355.475 85.1055 354.309 83.9392 352.868 83.9392H351.016C350.605 83.9392 350.536 83.7334 350.536 83.3218V81.5382C350.536 81.2638 350.605 81.1266 351.016 81.1266C351.702 81.1266 354.515 81.3324 359.591 81.3324C364.325 81.3324 365.834 81.1266 366.451 81.1266C366.931 81.1266 367 81.2638 367 81.6754V83.3218C367 83.7334 366.931 83.9392 366.451 83.9392H365.216C364.393 83.9392 362.335 84.3508 361.306 85.5857C360.414 86.6833 349.713 104.245 346.9 109.527Z" fill="#431407"/>
</g>
<defs>
<clipPath id="clip0_207_10">
<rect width="383" height="145" fill="white"/>
</clipPath>
</defs>
</svg>
